<?xml version="1.0" encoding="UTF-8"?>
<svg width="128" height="128" viewBox="0 0 128 128" xmlns="http://www.w3.org/2000/svg">
  <!-- Background -->
  <rect width="128" height="128" rx="16" fill="#2c3e50"/>
  
  <!-- Document background -->
  <rect x="20" y="16" width="88" height="96" rx="8" fill="#ecf0f1" stroke="#bdc3c7" stroke-width="2"/>
  
  <!-- Header line -->
  <rect x="28" y="28" width="72" height="8" rx="4" fill="#3498db"/>
  
  <!-- Text lines -->
  <rect x="28" y="44" width="56" height="4" rx="2" fill="#7f8c8d"/>
  <rect x="28" y="52" width="64" height="4" rx="2" fill="#7f8c8d"/>
  <rect x="28" y="60" width="48" height="4" rx="2" fill="#7f8c8d"/>
  <rect x="28" y="68" width="60" height="4" rx="2" fill="#7f8c8d"/>
  
  <!-- Code block -->
  <rect x="28" y="80" width="72" height="20" rx="4" fill="#34495e"/>
  <rect x="32" y="84" width="24" height="2" rx="1" fill="#e74c3c"/>
  <rect x="32" y="88" width="32" height="2" rx="1" fill="#f39c12"/>
  <rect x="32" y="92" width="20" height="2" rx="1" fill="#27ae60"/>
  <rect x="32" y="96" width="28" height="2" rx="1" fill="#9b59b6"/>
  
  <!-- Snippet icon -->
  <circle cx="96" cy="32" r="16" fill="#e74c3c"/>
  <rect x="88" y="28" width="16" height="3" rx="1.5" fill="white"/>
  <rect x="88" y="32" width="16" height="3" rx="1.5" fill="white"/>
  <rect x="88" y="36" width="16" height="3" rx="1.5" fill="white"/>
</svg>